<?xml version="1.0" encoding="UTF-8" standalone="no"?>
<!-- Created with Inkscape (http://www.inkscape.org/) -->

<svg
   width="800"
   height="800"
   viewBox="0 0 211.66667 211.66666"
   version="1.1"
   id="svg5"
   inkscape:version="1.3 (0e150ed, 2023-07-21)"
   sodipodi:docname="yotiojp.svg"
   xml:space="preserve"
   xmlns:inkscape="http://www.inkscape.org/namespaces/inkscape"
   xmlns:sodipodi="http://sodipodi.sourceforge.net/DTD/sodipodi-0.dtd"
   xmlns="http://www.w3.org/2000/svg"
   xmlns:svg="http://www.w3.org/2000/svg"><sodipodi:namedview
     id="namedview7"
     pagecolor="#dcdce1"
     bordercolor="#666666"
     borderopacity="1.0"
     inkscape:pageshadow="2"
     inkscape:pageopacity="0"
     inkscape:pagecheckerboard="0"
     inkscape:document-units="mm"
     showgrid="false"
     units="px"
     width="2600px"
     height="800px"
     inkscape:zoom="0.4543157"
     inkscape:cx="370.88747"
     inkscape:cy="451.22808"
     inkscape:window-width="1680"
     inkscape:window-height="941"
     inkscape:window-x="0"
     inkscape:window-y="25"
     inkscape:window-maximized="1"
     inkscape:current-layer="layer1"
     inkscape:showpageshadow="2"
     inkscape:deskcolor="#dcdce1"
     showguides="true" /><defs
     id="defs2"><rect
       x="128.36201"
       y="89.853416"
       width="1111.6151"
       height="344.01022"
       id="rect6" /><rect
       x="1291.1272"
       y="396.17371"
       width="487.37915"
       height="88.355286"
       id="rect3" /><rect
       x="279.84384"
       y="92.757233"
       width="506.19122"
       height="140.00919"
       id="rect1036" /><rect
       x="233.32127"
       y="29.695436"
       width="528.57874"
       height="153.56783"
       id="rect233" /></defs><g
     inkscape:label="レイヤー 1"
     inkscape:groupmode="layer"
     id="layer1"><text
       xml:space="preserve"
       style="font-style:normal;font-weight:normal;font-size:10.5833px;line-height:1.25;font-family:sans-serif;fill:#000000;fill-opacity:1;stroke:none;stroke-width:0.264583"
       x="166.84157"
       y="99.463242"
       id="text1301"><tspan
         sodipodi:role="line"
         id="tspan1299"
         style="stroke-width:0.264583"
         x="166.84157"
         y="99.463242" /></text><text
       xml:space="preserve"
       transform="scale(0.26458333)"
       id="text3"
       style="font-style:normal;font-variant:normal;font-weight:900;font-stretch:normal;font-size:64px;font-family:'Noto Sans JP';-inkscape-font-specification:'Noto Sans JP Heavy';white-space:pre;shape-inside:url(#rect3);display:inline;fill:#999999" /><path
       id="path1"
       style="fill:#f9f9f9;stroke:#ffffff;stroke-width:10.1065;stroke-dasharray:none;stroke-opacity:0"
       d="M 106.16355 5.5795044 A 100.779 100.2865 0 0 0 5.3846842 105.86641 A 100.779 100.2865 0 0 0 106.16355 206.15279 A 100.779 100.2865 0 0 0 206.94292 105.86641 A 100.779 100.2865 0 0 0 106.16355 5.5795044 z M 113.07372 56.374337 C 117.62123 56.374337 121.13524 59.939512 121.13524 64.228638 C 121.13524 68.517764 117.62123 72.083455 113.07372 72.083455 C 108.52621 72.083455 105.01219 68.517764 105.01219 64.228638 C 105.01219 59.939512 108.52621 56.374337 113.07372 56.374337 z M 163.04483 78.077922 C 177.10076 78.077922 185.67911 88.826694 185.67911 106.86169 L 185.67911 106.91337 C 185.67911 124.89669 177.10076 135.74882 163.25153 135.74882 C 155.34507 135.74882 149.09218 131.71803 146.09496 125.15515 L 145.7849 125.15515 L 145.7849 152.69869 L 130.69538 152.69869 L 130.69538 79.214803 L 145.7849 79.214803 L 145.7849 88.878296 L 146.14663 88.878296 C 149.14386 82.160388 155.19004 78.077922 163.04483 78.077922 z M 25.172624 79.214803 L 41.760758 79.214803 L 53.439632 122.51965 L 53.853044 122.51965 L 65.583594 79.214803 L 81.499935 79.214803 L 62.483008 135.59379 C 58.142206 148.66787 50.70073 152.85372 38.40179 152.85372 C 35.456246 152.85372 32.458993 152.49198 30.702002 152.18193 L 30.702002 140.96814 C 31.787203 141.17484 33.544215 141.4849 35.766292 141.4849 C 40.262123 141.4849 42.742616 140.19298 44.086198 136.42061 L 44.757992 134.61194 L 25.172624 79.214803 z M 105.52896 79.214803 L 120.61848 79.214803 L 120.61848 135.74882 C 120.61848 147.01424 113.74546 152.85372 100.77473 152.85372 C 99.379469 152.85372 97.570785 152.80204 96.640613 152.69869 L 96.640613 141.32987 C 97.209051 141.38155 97.88085 141.43323 98.552641 141.43323 C 103.56523 141.43323 105.52896 139.83124 105.52896 135.33541 L 105.52896 79.214803 z M 158.08389 90.583618 C 150.74587 90.583618 145.73322 96.888184 145.73322 106.91337 L 145.73322 106.96505 C 145.73322 116.93856 150.74587 123.24312 158.08389 123.24312 C 165.57694 123.24312 170.33121 116.99023 170.33121 106.91337 L 170.33121 106.86169 C 170.33121 96.733156 165.57694 90.583618 158.08389 90.583618 z M 87.64943 118.74727 C 92.30029 118.74727 96.020496 122.41632 96.020496 127.11886 C 96.020496 131.76972 92.30029 135.49044 87.64943 135.49044 C 82.946895 135.49044 79.277848 131.76972 79.277848 127.11886 C 79.277848 122.41632 82.946895 118.74727 87.64943 118.74727 z " /></g><g
     inkscape:groupmode="layer"
     id="layer2"
     inkscape:label="レイヤー 2" /><style
     type="text/css"
     id="style1">&#10;	.st0{fill:#4B4B4B;}&#10;</style></svg>
