<?xml version="1.0" encoding="UTF-8" standalone="no"?>
<!-- Created with Inkscape (http://www.inkscape.org/) -->

<svg
   width="800"
   height="800"
   viewBox="0 0 211.66667 211.66666"
   version="1.1"
   id="svg5"
   inkscape:version="1.3 (0e150ed, 2023-07-21)"
   sodipodi:docname="yotiojp.svg"
   xml:space="preserve"
   xmlns:inkscape="http://www.inkscape.org/namespaces/inkscape"
   xmlns:sodipodi="http://sodipodi.sourceforge.net/DTD/sodipodi-0.dtd"
   xmlns="http://www.w3.org/2000/svg"
   xmlns:svg="http://www.w3.org/2000/svg"><sodipodi:namedview
     id="namedview7"
     pagecolor="#dcdce1"
     bordercolor="#666666"
     borderopacity="1.0"
     inkscape:pageshadow="2"
     inkscape:pageopacity="0"
     inkscape:pagecheckerboard="0"
     inkscape:document-units="mm"
     showgrid="false"
     units="px"
     width="2600px"
     height="800px"
     inkscape:zoom="0.4543157"
     inkscape:cx="370.88747"
     inkscape:cy="451.22808"
     inkscape:window-width="1680"
     inkscape:window-height="941"
     inkscape:window-x="0"
     inkscape:window-y="25"
     inkscape:window-maximized="1"
     inkscape:current-layer="layer1"
     inkscape:showpageshadow="2"
     inkscape:deskcolor="#dcdce1"
     showguides="true" /><defs
     id="defs2"><rect
       x="128.36201"
       y="89.853416"
       width="1111.6151"
       height="344.01022"
       id="rect6" /><rect
       x="1291.1272"
       y="396.17371"
       width="487.37915"
       height="88.355286"
       id="rect3" /><rect
       x="279.84384"
       y="92.757233"
       width="506.19122"
       height="140.00919"
       id="rect1036" /><rect
       x="233.32127"
       y="29.695436"
       width="528.57874"
       height="153.56783"
       id="rect233" /></defs><g
     inkscape:label="レイヤー 1"
     inkscape:groupmode="layer"
     id="layer1"><text
       xml:space="preserve"
       style="font-style:normal;font-weight:normal;font-size:10.5833px;line-height:1.25;font-family:sans-serif;fill:#000000;fill-opacity:1;stroke:none;stroke-width:0.264583"
       x="166.84157"
       y="99.463242"
       id="text1301"><tspan
         sodipodi:role="line"
         id="tspan1299"
         style="stroke-width:0.264583"
         x="166.84157"
         y="99.463242" /></text><text
       xml:space="preserve"
       transform="scale(0.26458333)"
       id="text3"
       style="font-style:normal;font-variant:normal;font-weight:900;font-stretch:normal;font-size:64px;font-family:'Noto Sans JP';-inkscape-font-specification:'Noto Sans JP Heavy';white-space:pre;shape-inside:url(#rect3);display:inline;fill:#999999" /><path
       id="path1"
       style="fill:#f9f9f9;stroke:#ffffff;stroke-width:10.5525;stroke-dasharray:none;stroke-opacity:0"
       d="M 105.87235,0.56109562 A 104.92384,105.01372 0 0 0 0.9486531,105.57524 104.92384,105.01372 0 0 0 105.87235,210.58882 104.92384,105.01372 0 0 0 210.79657,105.57524 104.92384,105.01372 0 0 0 105.87235,0.56109562 Z m 7.8486,55.36825538 c 4.19653,0 7.47845,3.300327 7.47845,7.412845 0,4.004294 -3.28192,7.359274 -7.47845,7.359274 -4.14273,0 -7.47845,-3.35498 -7.47845,-7.359274 0,-4.112518 3.33572,-7.412845 7.47845,-7.412845 z m 49.44383,21.806719 c 14.47263,0 23.61898,11.36366 23.61898,29.86999 v 0.0542 c 0,18.39809 -9.14635,29.76176 -23.45758,29.76176 -8.12402,0 -14.63409,-4.11257 -17.86219,-10.82247 h -0.269 v 28.62541 H 131.79834 V 78.926541 h 13.39665 v 9.902553 h 0.269 c 3.2819,-6.872235 9.52296,-11.093024 17.70079,-11.093024 z M 26.724009,78.926541 H 41.358094 L 54.700397,124.81378 H 55.07701 L 68.473652,78.926541 H 82.56972 L 62.071241,138.23362 c -4.357926,12.60813 -11.028876,17.09951 -22.919021,17.09951 -2.582473,0 -5.272581,-0.32468 -6.886626,-0.59523 v -10.28136 c 1.022228,0.21646 2.582492,0.48702 4.465548,0.48702 5.111147,0 7.96267,-1.46105 9.68432,-6.27704 l 0.807026,-2.32681 z m 80.325521,0 h 13.39664 v 58.982399 c 0,11.63411 -6.51007,17.4783 -19.47624,17.4783 -1.12983,0 -2.528689,-0.0541 -3.335716,-0.16235 V 144.673 c 0.538028,0 1.129831,0.0541 1.77546,0.0541 5.541566,0 7.639856,-1.73161 7.639856,-7.03461 z m 52.13394,10.173114 c -8.28546,0 -14.09609,7.251096 -14.09609,18.506405 v 0.0542 c 0,11.20118 5.81063,18.39817 14.09609,18.39817 8.55443,0 13.93464,-7.08875 13.93464,-18.39817 v -0.0542 c 0,-11.471757 -5.38021,-18.506405 -13.93464,-18.506405 z M 88.487915,121.51293 c 4.357927,0 7.747456,3.46321 7.747456,7.79217 0,4.38309 -3.389529,7.84628 -7.747456,7.84628 -4.357926,0 -7.801258,-3.46319 -7.801258,-7.84628 0,-4.32896 3.443332,-7.79217 7.801258,-7.79217 z" /></g><g
     inkscape:groupmode="layer"
     id="layer2"
     inkscape:label="レイヤー 2" /><style
     type="text/css"
     id="style1">&#10;	.st0{fill:#4B4B4B;}&#10;</style></svg>
